<?xml version="1.0" encoding="UTF-8" standalone="no"?>
<!-- Created with Inkscape (http://www.inkscape.org/) -->

<svg
   width="16"
   height="8"
   viewBox="0 0 4.2333333 2.1166668"
   version="1.1"
   id="svg1"
   xml:space="preserve"
   sodipodi:docname="Logosvg.svg"
   inkscape:version="1.3 (0e150ed6c4, 2023-07-21)"
   xmlns:inkscape="http://www.inkscape.org/namespaces/inkscape"
   xmlns:sodipodi="http://sodipodi.sourceforge.net/DTD/sodipodi-0.dtd"
   xmlns="http://www.w3.org/2000/svg"
   xmlns:svg="http://www.w3.org/2000/svg"><sodipodi:namedview
     id="namedview1"
     pagecolor="#505050"
     bordercolor="#eeeeee"
     borderopacity="1"
     inkscape:showpageshadow="0"
     inkscape:pageopacity="0"
     inkscape:pagecheckerboard="0"
     inkscape:deskcolor="#505050"
     inkscape:document-units="mm"
     inkscape:zoom="32"
     inkscape:cx="8.34375"
     inkscape:cy="3.359375"
     inkscape:window-width="728"
     inkscape:window-height="729"
     inkscape:window-x="-8"
     inkscape:window-y="-8"
     inkscape:window-maximized="0"
     inkscape:current-layer="layer1" /><defs
     id="defs1" /><g
     inkscape:label="Capa 1"
     inkscape:groupmode="layer"
     id="layer1"><path
       style="fill:#000000;stroke-width:2.77164"
       d="m 1.9493719,1.8122901 c -6.944e-4,-0.00951 -0.00269,-0.028428 -0.00444,-0.042026 -0.00175,-0.013609 -6.447e-4,-0.049912 0.00244,-0.080701 0.00546,-0.054439 0.00654,-0.056154 0.039474,-0.062331 0.046517,-0.00873 0.070078,7.889e-4 0.088063,0.035566 0.012396,0.023975 0.013165,0.036026 0.00404,0.06365 -0.013664,0.041394 -0.040708,0.057504 -0.083174,0.049538 -0.030826,-0.00579 -0.031732,-0.00499 -0.027495,0.023808 0.00263,0.017905 -1.74e-5,0.029795 -0.00662,0.029795 -0.00608,0 -0.011587,-0.0078 -0.012278,-0.017295 z m 0.084238,-0.057813 c 0.020677,-0.00792 0.031647,-0.069083 0.015827,-0.088151 -0.014719,-0.017711 -0.050752,-0.019263 -0.067152,-0.00285 -0.018015,0.018015 -0.014219,0.055007 0.0079,0.077131 0.022089,0.022088 0.022035,0.022088 0.043421,0.013887 z m -1.35350828,0.01602 c -0.003266,-0.00531 -0.008583,-0.033122 -0.011835,-0.061804 -0.003217,-0.028685 -0.009345,-0.056614 -0.0135811,-0.062069 -0.004236,-0.00546 -0.001713,-0.018125 0.005632,-0.028163 0.0129694,-0.017738 0.0140513,-0.017738 0.0384251,2.81e-5 0.0285203,0.020786 0.032567,0.033107 0.0108708,0.033107 -0.0111698,0 -0.0148294,0.01203 -0.0148294,0.048859 0,0.026886 0.004454,0.051609 0.009889,0.05497 0.005435,0.00334 0.009889,0.01031 0.009889,0.01541 0,0.012279 -0.0268286,0.012004 -0.0344655,-3.481e-4 z m 0.59369288,-0.0013 c -0.00269,-0.00758 -0.00613,-0.035983 -0.00765,-0.06313 -0.00216,-0.038344 -0.00674,-0.050108 -0.020537,-0.05273 -0.030893,-0.00588 -0.046499,0.017184 -0.046499,0.068687 0,0.026525 -0.00446,0.048232 -0.00989,0.048232 -0.00563,0 -0.00989,-0.029236 -0.00989,-0.067923 v -0.067926 l 0.036,-0.00585 c 0.01979,-0.00322 0.044832,-0.00112 0.055624,0.00465 0.01408,0.00754 0.025666,0.00726 0.041014,-9.47e-4 0.015244,-0.00815 0.029105,-0.0085 0.048208,-0.00126 0.025334,0.00965 0.026802,0.013692 0.026802,0.074131 0,0.035168 -0.00446,0.066689 -0.00989,0.070047 -0.00613,0.00376 -0.00994,-0.01394 -0.010039,-0.046387 -1.82e-4,-0.063138 -0.00922,-0.080037 -0.040513,-0.075613 -0.020815,0.00293 -0.024445,0.010205 -0.030848,0.061674 -0.00765,0.061608 -0.013859,0.076996 -0.021896,0.054325 z m 0.3567964,-0.00957 c -0.032711,-0.025721 -0.03493,-0.074327 -0.00512,-0.1122121 0.02633,-0.03347 0.063241,-0.031087 0.0907,0.00585 0.029849,0.040164 0.01699,0.057631 -0.04244,0.057631 -0.047807,0 -0.049593,9.493e-4 -0.039005,0.020732 0.009,0.016824 0.018404,0.020037 0.04979,0.017046 0.040764,-0.00388 0.046271,1.328e-4 0.026829,0.01957 -0.017905,0.017905 -0.051602,0.014302 -0.080741,-0.00861 z m 0.07283,-0.087693 c 0,-0.015548 -0.01957,-0.022561 -0.045061,-0.016157 -0.035954,0.00902 -0.029208,0.025471 0.010454,0.025471 0.019043,0 0.034609,-0.00417 0.034609,-0.0093 z m 0.5900164,0.1015961 c -0.00989,-0.00989 -0.00765,-0.1247678 0.00277,-0.1412204 0.013637,-0.021536 0.022534,0.024169 0.01699,0.087309 -0.00474,0.054104 -0.00873,0.064959 -0.019762,0.053911 z m 0.2538293,-0.018847 c -0.020954,-0.020954 -0.024445,-0.031645 -0.019762,-0.060558 0.00703,-0.043462 0.031921,-0.072212 0.062461,-0.072212 0.030552,0 0.064771,0.035078 0.060879,0.062412 -0.00261,0.018348 -0.010362,0.022117 -0.050887,0.024695 -0.038057,0.00242 -0.046627,0.00613 -0.042026,0.018126 0.00319,0.00829 0.00579,0.016936 0.00579,0.019206 0,0.00229 0.021148,0.00426 0.046969,0.00446 0.043452,2.908e-4 0.045532,0.0014 0.027774,0.014829 -0.028668,0.021675 -0.062666,0.017599 -0.091205,-0.010924 z m 0.075789,-0.083326 c 0,-0.015215 -0.0066,-0.01979 -0.028608,-0.01979 -0.038268,0 -0.048964,0.027024 -0.012891,0.032525 0.014662,0.00225 0.029988,0.00474 0.03407,0.00554 0.00408,8.149e-4 0.00743,-0.00743 0.00743,-0.018293 z m 0.2582362,0.08325 c -0.047856,-0.060837 4.254e-4,-0.1468522 0.072301,-0.1288148 0.036186,0.00908 0.031533,0.025775 -0.00718,0.025775 -0.041326,0 -0.056365,0.015105 -0.056365,0.05661 0,0.025582 0.00526,0.034874 0.023671,0.041875 0.012994,0.00497 0.033634,0.00638 0.045824,0.00319 0.016187,-0.00423 0.020927,-0.00206 0.017599,0.00807 -0.0025,0.00762 -0.020399,0.015216 -0.039746,0.016852 -0.028396,0.00242 -0.039218,-0.00213 -0.056095,-0.023586 z m 0.3186183,7.8e-5 c -0.021203,-0.0212 -0.024474,-0.031512 -0.019622,-0.061802 0.00624,-0.038924 0.036414,-0.070964 0.066849,-0.070964 0.026718,0 0.060008,0.036864 0.056372,0.062412 -0.00269,0.018875 -0.00912,0.021591 -0.050464,0.021259 -0.042132,-3.355e-4 -0.047066,0.00185 -0.044498,0.01979 0.00238,0.016657 0.010166,0.020149 0.044925,0.020149 0.042042,0 0.057427,0.016684 0.026359,0.028608 -0.030368,0.011639 -0.054759,0.00571 -0.079926,-0.019457 z m 0.07916,-0.088803 c -0.00706,-0.018432 -0.063947,-0.015993 -0.070183,0.00299 -0.0028,0.00851 0.00839,0.012357 0.036009,0.012357 0.032171,0 0.038906,-0.00302 0.034171,-0.015356 z M 3.5272896,1.766107 c -0.026054,-0.01907 -0.01347,-0.0285 0.020676,-0.015522 0.059862,0.022754 0.072982,-0.00984 0.015716,-0.039058 -0.021092,-0.010753 -0.040773,-0.025914 -0.043752,-0.033677 -0.00746,-0.019457 0.019929,-0.055942 0.041997,-0.055942 0.023116,0 0.071988,0.038743 0.049483,0.039225 -0.00841,1.812e-4 -0.020372,-0.0047 -0.026525,-0.010871 -0.012447,-0.012447 -0.042194,-0.00494 -0.042194,0.01065 0,0.00546 0.014467,0.017351 0.032136,0.026413 0.049679,0.025443 0.059388,0.049321 0.03143,0.077276 -0.019318,0.019319 -0.053713,0.019983 -0.078969,0.00151 z M 0.93582187,1.7393464 c 0.003415,-0.01699 0.006177,-0.059268 0.006177,-0.093943 0,-0.1002782 0.0163804,-0.072985 0.0185414,0.030901 0.001713,0.081744 -1.7462e-4,0.093943 -0.014467,0.093943 -0.0131089,0 -0.0151887,-0.00621 -0.0102581,-0.030901 z M 2.2914819,1.6016619 c -0.0094,-0.015215 0.00346,-0.025001 0.016157,-0.012331 0.00709,0.00709 0.00726,0.012643 5.185e-4,0.016795 -0.00554,0.00341 -0.013055,0.0014 -0.016685,-0.00449 z M 1.0309988,1.4129475 C 0.95180087,1.3999798 0.876579,1.3600152 0.84229906,1.312693 0.79076267,1.241549 0.78378503,1.1974016 0.78378503,0.94246148 v -0.2308996 l 0.11619022,0.0028 0.11619005,0.0028 0.00234,0.1928256 c 0.00128,0.10605362 0.00694,0.20918642 0.012525,0.22918112 0.01577,0.056165 0.059576,0.087253 0.1229859,0.087253 0.055387,0 0.092337,-0.01979 0.1168276,-0.062571 0.00829,-0.014441 0.013913,-0.091043 0.01724,-0.23408712 l 0.00494,-0.2126039 0.1161902,-0.0028 0.1161903,-0.0028 v 0.231124 c 0,0.25695012 -0.00563,0.29151712 -0.059868,0.36702852 -0.067518,0.094025 -0.2402295,0.1350542 -0.434556,0.1032365 z m 1.2415317,-0.00518 C 2.2131397,1.3895227 2.1477091,1.3458863 2.1144863,1.3023267 2.0497217,1.2174155 2.0179944,1.0866658 2.0377812,0.98621084 c 0.00908,-0.046198 0.00861,-0.047703 -0.019678,-0.062331 -0.015937,-0.00824 -0.049888,-0.01724 -0.07543,-0.019984 -0.06397,-0.00687 -0.1090006,0.017573 -0.1379083,0.074898 -0.020786,0.041205 -0.022256,0.0567241 -0.022256,0.23485196 V 1.4043811 H 1.6638659 1.5452033 V 1.0579747 0.71156128 l 0.1161902,0.0028 0.1161901,0.0028 0.00305,0.042026 c 0.00167,0.023116 0.00534,0.042026 0.00817,0.042026 0.00282,0 0.018652,-0.013525 0.035184,-0.030047 0.081072,-0.081072 0.2134578,-0.099929 0.3022332,-0.043041 l 0.022312,0.014303 -0.02087,0.041756 -0.020869,0.041758 0.036514,-0.038026 c 0.099699,-0.1038232 0.2809818,-0.1240312 0.4053264,-0.045175 0.025001,0.015855 0.047692,0.028827 0.050431,0.028827 0.00274,0 0.00368,-0.012251 0.00213,-0.027191 l -0.00285,-0.027192 0.1150223,-0.00278 0.1150236,-0.00278 0.00363,0.027495 c 0.00201,0.015132 0.00241,0.1711486 8.976e-4,0.34672432 l -0.00274,0.3192271 -0.1109766,-0.00281 -0.1109766,-0.0028 -0.00305,-0.036583 -0.00305,-0.036583 -0.044349,0.033853 c -0.079441,0.060617 -0.1853418,0.078305 -0.2852798,0.04764 z M 2.5242699,1.1942482 c 0.055783,-0.037968 0.073337,-0.070222 0.07372,-0.1354777 3.851e-4,-0.065626 -0.017129,-0.097805 -0.074731,-0.13733202 -0.043439,-0.029808 -0.1277448,-0.026828 -0.1740392,0.00613 -0.06316,0.044974 -0.083476,0.15621242 -0.040127,0.21972162 0.046692,0.068403 0.1504138,0.091043 0.215176,0.046966 z M 0.022367,1.0579747 V 0.71156128 l 0.11619017,0.0028 0.11619018,0.0028 0.003127,0.027191 c 0.003936,0.034191 0.0123041,0.034046 0.0607593,-0.00106 0.0593347,-0.042982 0.1194265,-0.056505 0.1941808,-0.0437 0.1428972,0.024474 0.23292001,0.1023794 0.2460548,0.2129254 0.003376,0.028517 0.00482,0.14974602 0.003188,0.26940042 l -0.00299,0.2175484 -0.11619031,0.0028 -0.11619012,0.00281 V 1.2002163 c 0,-0.1879667 -0.001703,-0.20839103 -0.0207867,-0.24779822 -0.0357507,-0.073854 -0.11612869,-0.092781 -0.18518668,-0.043604 -0.0552002,0.039308 -0.0610146,0.067118 -0.0610146,0.29193272 v 0.203693 H 0.14103448 0.02237306 Z m 2.8479017,0 V 0.71156128 l 0.1161902,0.0028 0.1161901,0.0028 0.00313,0.027191 c 0.00393,0.034191 0.012305,0.034046 0.060759,-0.00106 0.021453,-0.015548 0.059411,-0.033964 0.084362,-0.040952 0.0902,-0.025249 0.2550544,0.025443 0.3078501,0.094652 0.048402,0.063457 0.05226,0.089637 0.052725,0.35772912 l 4.404e-4,0.2496983 H 3.4932452 3.374584 V 1.199878 c 0,-0.1876481 -0.00172,-0.20808333 -0.020787,-0.24748232 -0.035752,-0.073854 -0.1161288,-0.092781 -0.1851869,-0.043605 -0.055199,0.039308 -0.061012,0.067118 -0.061012,0.29193262 v 0.203689 H 2.9889264 2.8702637 Z m 0.7713067,6.275e-4 V 0.71218918 h 0.1187917 0.1187892 l -0.0026,0.34362722 0.00256,0.3487944 -0.237548,4.424e-4 z"
       id="path1"
       sodipodi:nodetypes="ccccccccscccccccccccccsscscccccssscccccscccccccccscccccccscccccccccscccscccccsccccccssccccccccscccscccccsccccccsccscccccscsccccccccsscccccscccccscccccccccsccccccccsccccccsscccccccccccccccsscccccccccccccccsccsccccccccccccccccsccsccccccccccccc" /><circle
       style="fill:#000000;stroke:#101836;stroke-width:0;stroke-linecap:round;stroke-miterlimit:1000;paint-order:markers fill stroke"
       id="path2"
       cx="4.0762358"
       cy="1.2691725"
       r="0.15502936" /><circle
       style="fill:#000000;stroke:#101836;stroke-width:0;stroke-linecap:round;stroke-miterlimit:1000;paint-order:markers fill stroke"
       id="path2-3"
       cx="3.7641149"
       cy="0.42788139"
       r="0.13849294" /></g></svg>
